<svg xmlns="http://www.w3.org/2000/svg" width="372.304" height="377.656" viewBox="0 0 349.03489 354.0528"><path fill="#e6e6e6" d="M223.214 230H346.07v122.857H223.214z"/><path fill="#ececec" d="M101.786 217.143h101.429v101.43h-101.43z"/><path fill="#f2f2f2" d="M39.436 204.387h46.737v46.737H39.436z"/><path fill="#f9f9f9" d="M77.5 0h31.429v31.43h-31.43zM58.929 51.428h32.857v32.857H58.929zm-30-22.857h21.429v21.43h-21.43z"/><path fill="#ececec" d="M210.357 110h100v100h-100z"/><path fill="#f9f9f9" d="M101.786 102.857h84.286v84.286h-84.286zM127.5 20h58.57v58.571H127.5zM24.643 115.714h58.57v58.571h-58.57zM3.214 67.142h31.429v31.43H3.213z"/><path fill="#f2f2f2" d="M210.357 30.896h54.818v54.818h-54.818z"/><path fill="#e6e6e6" d="M188.867 331.176h19.746v22.877h-19.746z"/><path fill="#ccc" d="M324.643 189.893h24.392v24.392h-24.392z"/><path fill="#f9f9f9" d="M9.286 7.5h15.357v15.357H9.286zm31.071-5h15.357v15.357H40.357zM0 35.357h15.357v15.357H0z"/><path fill="#f9f9f9" d="M0 35.357h15.357v15.357H0z"/></svg>