<svg xmlns="http://www.w3.org/2000/svg" width="574.336" height="399.168" viewBox="0 0 538.44032 374.22001"><g fill-rule="evenodd"><path d="M0 242.045L.804 358.69l94.121-73.204z" fill="#b3b3b3"/><path d="M102.813 146.407l-77.046 87.581 118.967 8.025z" fill="#e6e6e6"/><path d="M224.936 166.27l-73.369 90.686 119.197 3.11zM234.384 86.502L119.616 65.646l54.467 106.07zM214.45 295.834l89.282 75.069 5.361-119.117z" fill="#ececec"/><path d="M346.777 81.161l-103.763 53.291 107.768 51.025z" fill="#f2f2f2"/><path d="M301.113 217.44l71.564 92.117 30.211-115.347z" fill="#ececec"/><path d="M2.7 76.928L90.084 154.2l8.331-118.946zM158.75 281.234l-70.642 92.825 119.236-.433z" fill="#e6e6e6"/><path d="M276.499 98.28l82.929-82.033L241.302 0z" fill="#f2f2f2"/><path d="M472.284 142.86l-64.408-97.254-38.83 112.738zM538.44 200.649l-114.768-20.856 54.467 106.07zM485.923 374.22l-49.27-105.732-55.123 105.73z" fill="#f9f9f9"/></g></svg>